<?xml version="1.0" encoding="UTF-8"?>
<svg version="1.1" xmlns="http://www.w3.org/2000/svg" viewBox="0 0 512 512">
<path d="M0 0 C0.87785156 0.66515625 1.75570313 1.3303125 2.66015625 2.015625 C51.12165575 39.80177041 82.3964325 95.06655916 90.109375 156.046875 C91.1940993 165.23663974 91.35614545 174.38021789 91.3125 183.625 C91.31034485 184.45349457 91.3081897 185.28198914 91.30596924 186.1355896 C91.09345686 237.27429689 74.1093315 286.97482635 42 327 C40.7934375 328.51207031 40.7934375 328.51207031 39.5625 330.0546875 C1.94287957 376.27470564 -55.81424076 406.65339739 -115 413 C-116.01320313 413.11085938 -117.02640625 413.22171875 -118.0703125 413.3359375 C-158.07135987 417.04530781 -200.70805048 409.27904198 -234.1640625 386.1171875 C-241.95143813 383.04943346 -252.21037723 387.4570253 -259.9375 389.4375 C-281.51106205 394.81077004 -301.50017584 398.42867428 -321.6875 386.3984375 C-335.43868787 377.21700414 -344.67903714 364.77750809 -348.578125 348.6015625 C-351.62942666 329.78520228 -345.74204088 309.85032436 -340.43676758 291.92456055 C-339.28567769 287.89323863 -338.51816939 284.97687872 -340 281 C-341.44816132 278.44847767 -342.93818482 275.97916387 -344.5 273.5 C-370.5760807 230.44151873 -374.49528251 178.99048289 -362.703125 130.79003906 C-353.78944483 95.42006096 -337.08026265 61.53955411 -313 34 C-312.3090625 33.19949219 -311.618125 32.39898437 -310.90625 31.57421875 C-300.54297018 19.8028846 -289.55963081 9.37901884 -277 0 C-275.61361328 -1.06154297 -275.61361328 -1.06154297 -274.19921875 -2.14453125 C-266.81182622 -7.69328386 -259.00050993 -12.40483532 -251 -17 C-250.41798828 -17.3403125 -249.83597656 -17.680625 -249.23632812 -18.03125 C-172.4095088 -62.6797534 -69.91334039 -53.08070175 0 0 Z M-266 34 C-266.83660156 34.72703125 -267.67320312 35.4540625 -268.53515625 36.203125 C-271.0582252 38.43372073 -273.53584826 40.70457203 -276 43 C-276.78890625 43.72316406 -277.5778125 44.44632813 -278.390625 45.19140625 C-290.73676224 56.96006288 -300.50823767 71.27865333 -309 86 C-309.4134668 86.71317383 -309.82693359 87.42634766 -310.25292969 88.16113281 C-333.21867379 128.32029333 -342.45982013 175.64422593 -331.1875 220.875 C-327.15956355 234.78420378 -321.00370168 247.14154203 -314.16455078 259.83056641 C-312.5549452 262.8290895 -310.98480812 265.84376748 -309.4375 268.875 C-308.98246094 269.75929688 -308.52742188 270.64359375 -308.05859375 271.5546875 C-302.9053452 283.45850149 -307.46573031 296.35843723 -310.4375 308.25 C-311.07187953 310.83095223 -311.70302737 313.4126674 -312.33253479 315.99481201 C-312.72298729 317.59175094 -313.1167906 319.18787567 -313.51451111 320.78302002 C-316.07457451 331.13149066 -317.98832902 339.92136078 -312.609375 349.63671875 C-308.74734775 355.30789955 -303.50398018 359.86943714 -296.76489258 361.63012695 C-285.16701812 363.18163069 -272.12921596 358.43524741 -261.05493164 355.30810547 C-247.38555583 351.47861744 -233.15692992 349.18565383 -220 356 C-216.57229987 357.97002749 -213.19644604 360.02617286 -209.81396484 362.07250977 C-175.19113294 382.70153683 -133.81357961 385.30662938 -95.19262695 376.04980469 C-77.28065513 371.46438849 -60.25526618 364.78780036 -44 356 C-43.4013916 355.68063477 -42.8027832 355.36126953 -42.18603516 355.03222656 C-17.5616647 341.81063763 3.36396854 323.38667294 20 301 C20.62390625 300.17113281 21.2478125 299.34226562 21.890625 298.48828125 C51.51251482 257.72357774 63.77576538 205.44644227 56.87280273 155.60986328 C49.86602636 112.71698312 30.64457847 76.43863077 1 45 C-0.09441406 43.824375 -0.09441406 43.824375 -1.2109375 42.625 C-30.83014391 11.79459928 -73.94343585 -7.0790959 -116 -12 C-116.89589844 -12.11085937 -117.79179687 -12.22171875 -118.71484375 -12.3359375 C-171.3840901 -17.80231089 -226.15710759 -0.93424807 -266 34 Z " fill="currentColor" transform="translate(395,72)"/>
<path d="M0 0 C1.08824988 -0.00679667 1.08824988 -0.00679667 2.1984846 -0.01373065 C4.62422477 -0.0263688 7.04974024 -0.02475467 9.47550964 -0.02310181 C11.21694222 -0.02908745 12.95837215 -0.03589308 14.69979858 -0.04345703 C19.42717581 -0.06112122 24.15448063 -0.06581261 28.88188767 -0.0670886 C31.83668854 -0.0685106 34.79147102 -0.07278113 37.74626732 -0.07808304 C48.05837039 -0.09658516 58.37042177 -0.10475348 68.68254089 -0.10317993 C78.28865754 -0.10197869 87.89454944 -0.12307713 97.50060922 -0.15466726 C105.7530068 -0.18083681 114.00533101 -0.19154693 122.25776976 -0.19026911 C127.18429476 -0.18975965 132.11062005 -0.19543405 137.03710365 -0.21662521 C141.67224132 -0.23601884 146.306989 -0.23612439 150.94214058 -0.22159195 C152.64003826 -0.2195041 154.33796041 -0.22420334 156.03581619 -0.23631287 C172.12467427 -0.3435991 172.12467427 -0.3435991 178.69499207 4.26742554 C183.00049071 9.67689819 184.40057878 14.39448824 183.69499207 21.26742554 C181.83642379 26.53336898 179.09185011 29.06138321 174.69499207 32.26742554 C171.13902618 33.4527475 168.303312 33.4023969 164.5478363 33.41459656 C163.4488407 33.42011159 163.4488407 33.42011159 162.32764316 33.42573804 C159.86577584 33.43677552 157.40395074 33.44061882 154.94206238 33.44442749 C153.17959967 33.45069208 151.41713828 33.45733888 149.65467834 33.46434021 C143.86083395 33.48538296 138.06698927 33.49574255 132.27311707 33.50570679 C130.27880082 33.50975421 128.28448472 33.51387113 126.29016876 33.51805687 C116.92119261 33.53710873 107.55222434 33.55133997 98.18323255 33.55966884 C87.36724334 33.56944273 76.5514587 33.59576628 65.73554158 33.63616973 C57.37620343 33.66632527 49.01692394 33.68113717 40.65753245 33.68444985 C35.66448694 33.68680092 30.67165997 33.69576887 25.67867279 33.72091103 C20.98038376 33.74418698 16.28245726 33.74842689 11.58412552 33.73814964 C9.86161468 33.73765406 8.13908602 33.74398112 6.41662979 33.75770569 C4.06068081 33.77542462 1.70603291 33.76831952 -0.6499176 33.75517273 C-1.96695049 33.75756108 -3.28398338 33.75994944 -4.64092636 33.76241016 C-10.22082361 33.00861599 -13.90495682 30.8516939 -17.68000793 26.57992554 C-20.41323701 21.0083432 -20.96948684 16.48235521 -19.18000793 10.51742554 C-14.39952297 2.2312516 -9.29759192 0.02401497 0 0 Z " fill="currentColor" transform="translate(175.3050079345703,278.7325744628906)"/>
<path d="M0 0 C0.7333693 -0.00297112 1.46673861 -0.00594224 2.22233123 -0.0090034 C4.68653694 -0.01769416 7.1506941 -0.01919896 9.61491394 -0.02069092 C11.37899886 -0.02531882 13.14308278 -0.03034344 14.90716553 -0.03573608 C19.70475802 -0.04886466 24.50233651 -0.05530592 29.29994416 -0.05974674 C32.29659034 -0.0626767 35.29323269 -0.06678135 38.28987694 -0.07125092 C47.66365886 -0.08492698 57.03743203 -0.09459313 66.41122323 -0.09845281 C77.2356752 -0.10293414 88.06000092 -0.12048511 98.88441449 -0.1494534 C107.24883338 -0.17106204 115.61321672 -0.18115665 123.97766322 -0.18249393 C128.9745463 -0.18354253 133.97131073 -0.18946212 138.96816444 -0.20731354 C143.66886923 -0.22378008 148.369366 -0.22595661 153.07008934 -0.21717453 C154.79462618 -0.2164034 156.51917413 -0.22075689 158.24368286 -0.23063278 C160.5997963 -0.24333356 162.95517091 -0.23748605 165.3112793 -0.22705078 C166.62923398 -0.22851734 167.94718866 -0.2299839 169.30508137 -0.2314949 C173.77933802 0.2384641 177.15112185 1.59441478 180.49064636 4.64044189 C183.96085914 9.09717001 185.2180948 12.23933427 185.12345886 17.94903564 C184.43032966 23.42573258 182.04885152 27.1831619 177.78361511 30.57794189 C173.19369857 33.01938687 169.92279677 33.26910773 164.76815796 33.28088379 C164.04295576 33.28385491 163.31775356 33.28682603 162.57057554 33.28988719 C160.13400876 33.29857738 157.69749109 33.30008271 155.26091003 33.30157471 C153.51652928 33.30620265 151.77214955 33.31122728 150.027771 33.31661987 C145.2838958 33.32974807 140.54003477 33.33618964 135.79614425 33.34063053 C132.83299999 33.34356055 129.86985961 33.34766522 126.9067173 33.3521347 C117.63758683 33.36581068 108.36846522 33.37547687 99.09932536 33.3793366 C88.39599386 33.38381788 77.69279004 33.40136866 66.98949736 33.43033719 C58.71849594 33.45194641 50.44753045 33.46204047 42.1765011 33.46337771 C37.23550881 33.46442628 32.29463652 33.47034502 27.35367393 33.48819733 C22.70549809 33.50466487 18.05753261 33.50683991 13.409338 33.49805832 C11.70415178 33.49728724 9.99895432 33.50163998 8.29379654 33.51151657 C5.96395473 33.52421907 3.63485992 33.51836895 1.30502319 33.50793457 C-0.6497858 33.51013441 -0.6497858 33.51013441 -2.64408588 33.51237869 C-7.84511721 32.96122037 -11.93871251 30.94792211 -15.46638489 27.07794189 C-18.88994444 22.79623416 -19.66142262 18.54571879 -19.15388489 13.14044189 C-17.57317498 7.78257053 -14.89316432 4.17844153 -10.15388489 1.14044189 C-6.59460783 -0.04598379 -3.75902811 0.00849153 0 0 Z " fill="currentColor" transform="translate(174.1538848876953,193.85955810546875)"/>
</svg>
